<svg width="2088" height="1740" viewBox="0 0 2088 1740" fill="none" xmlns="http://www.w3.org/2000/svg">
<g clip-path="url(#clip0_468_893)">
<rect width="2088" height="1740" fill="white"/>
<path fill-rule="evenodd" clip-rule="evenodd" d="M348 0V348H0.000244141V0H348ZM261 87H87.0003V261H261V87Z" fill="#2F7339"/>
<path fill-rule="evenodd" clip-rule="evenodd" d="M522 0V174H348C348 77.9665 425.967 0 522 0Z" fill="#FD3F03"/>
<path fill-rule="evenodd" clip-rule="evenodd" d="M522 0.00012207H696V174C599.966 174 522 96.0336 522 0.00012207Z" fill="#FD3F03"/>
<path fill-rule="evenodd" clip-rule="evenodd" d="M522 348V174H696C696 270.033 618.033 348 522 348Z" fill="#FD3F03"/>
<path fill-rule="evenodd" clip-rule="evenodd" d="M522 348H348V174C444.034 174 522 251.966 522 348Z" fill="#FD3F03"/>
<path fill-rule="evenodd" clip-rule="evenodd" d="M2088 0V348H1740V0H2088ZM1914 69.6C1914 127.22 1867.22 174 1809.6 174C1867.22 174 1914 220.78 1914 278.4C1914 220.78 1960.78 174 2018.4 174C1960.78 174 1914 127.22 1914 69.6Z" fill="#2F7339"/>
<path fill-rule="evenodd" clip-rule="evenodd" d="M1044 174L1218 348H1044V174Z" fill="#2F7339"/>
<path fill-rule="evenodd" clip-rule="evenodd" d="M1044 174V0H1218L1044 174Z" fill="#2F7339"/>
<path fill-rule="evenodd" clip-rule="evenodd" d="M1392 174V348L1218 174H1392Z" fill="#2F7339"/>
<path fill-rule="evenodd" clip-rule="evenodd" d="M1218 174L1392 0V174H1218Z" fill="#2F7339"/>
<path fill-rule="evenodd" clip-rule="evenodd" d="M696 0H870V174L696 0Z" fill="#FFC90F"/>
<path fill-rule="evenodd" clip-rule="evenodd" d="M1044 0.00012207V174H870.001L1044 0.00012207Z" fill="#FFC90F"/>
<path fill-rule="evenodd" clip-rule="evenodd" d="M1044 348H870.001V174L1044 348Z" fill="#FFC90F"/>
<path fill-rule="evenodd" clip-rule="evenodd" d="M696 348V174H870L696 348Z" fill="#FFC90F"/>
<path fill-rule="evenodd" clip-rule="evenodd" d="M1740 0V348H1392V0H1740ZM1566 115.811C1544.02 65.7459 1500.06 65.7459 1478.09 86.6259C1456.11 107.506 1456.11 149.266 1478.09 191.026C1493.47 222.346 1533.03 253.666 1566 274.546C1598.97 253.666 1638.53 222.346 1653.92 191.026C1675.9 149.266 1675.9 107.506 1653.92 86.6259C1631.94 65.7459 1587.98 65.7459 1566 115.811Z" fill="#0C89FF"/>
<path d="M1774.95 417.567C1794.16 417.567 1809.73 401.994 1809.73 382.783C1809.73 363.573 1794.16 348 1774.95 348C1755.74 348 1740.17 363.573 1740.17 382.783C1740.17 401.994 1755.74 417.567 1774.95 417.567Z" fill="#0C89FF"/>
<path d="M1774.95 487.133C1794.16 487.133 1809.73 471.56 1809.73 452.35C1809.73 433.14 1794.16 417.567 1774.95 417.567C1755.74 417.567 1740.17 433.14 1740.17 452.35C1740.17 471.56 1755.74 487.133 1774.95 487.133Z" fill="#0C89FF"/>
<path d="M1774.95 556.7C1794.16 556.7 1809.73 541.127 1809.73 521.917C1809.73 502.707 1794.16 487.134 1774.95 487.134C1755.74 487.134 1740.17 502.707 1740.17 521.917C1740.17 541.127 1755.74 556.7 1774.95 556.7Z" fill="#0C89FF"/>
<path d="M1774.95 626.267C1794.16 626.267 1809.73 610.694 1809.73 591.483C1809.73 572.273 1794.16 556.7 1774.95 556.7C1755.74 556.7 1740.17 572.273 1740.17 591.483C1740.17 610.694 1755.74 626.267 1774.95 626.267Z" fill="#0C89FF"/>
<path d="M1774.95 695.834C1794.16 695.834 1809.73 680.261 1809.73 661.051C1809.73 641.841 1794.16 626.268 1774.95 626.268C1755.74 626.268 1740.17 641.841 1740.17 661.051C1740.17 680.261 1755.74 695.834 1774.95 695.834Z" fill="#0C89FF"/>
<path d="M1844.52 417.567C1863.73 417.567 1879.3 401.994 1879.3 382.783C1879.3 363.573 1863.73 348 1844.52 348C1825.31 348 1809.73 363.573 1809.73 382.783C1809.73 401.994 1825.31 417.567 1844.52 417.567Z" fill="#0C89FF"/>
<path d="M1844.52 487.133C1863.73 487.133 1879.3 471.56 1879.3 452.35C1879.3 433.14 1863.73 417.567 1844.52 417.567C1825.31 417.567 1809.73 433.14 1809.73 452.35C1809.73 471.56 1825.31 487.133 1844.52 487.133Z" fill="#0C89FF"/>
<path d="M1844.52 556.7C1863.73 556.7 1879.3 541.127 1879.3 521.917C1879.3 502.707 1863.73 487.134 1844.52 487.134C1825.31 487.134 1809.73 502.707 1809.73 521.917C1809.73 541.127 1825.31 556.7 1844.52 556.7Z" fill="#0C89FF"/>
<path d="M1844.52 626.267C1863.73 626.267 1879.3 610.694 1879.3 591.483C1879.3 572.273 1863.73 556.7 1844.52 556.7C1825.31 556.7 1809.73 572.273 1809.73 591.483C1809.73 610.694 1825.31 626.267 1844.52 626.267Z" fill="#0C89FF"/>
<path d="M1844.52 695.834C1863.73 695.834 1879.3 680.261 1879.3 661.051C1879.3 641.841 1863.73 626.268 1844.52 626.268C1825.31 626.268 1809.73 641.841 1809.73 661.051C1809.73 680.261 1825.31 695.834 1844.52 695.834Z" fill="#0C89FF"/>
<path d="M1983.65 417.567C2002.86 417.567 2018.43 401.994 2018.43 382.783C2018.43 363.573 2002.86 348 1983.65 348C1964.44 348 1948.87 363.573 1948.87 382.783C1948.87 401.994 1964.44 417.567 1983.65 417.567Z" fill="#0C89FF"/>
<path d="M1983.65 487.133C2002.86 487.133 2018.43 471.56 2018.43 452.35C2018.43 433.14 2002.86 417.567 1983.65 417.567C1964.44 417.567 1948.87 433.14 1948.87 452.35C1948.87 471.56 1964.44 487.133 1983.65 487.133Z" fill="#0C89FF"/>
<path d="M1983.65 556.7C2002.86 556.7 2018.43 541.127 2018.43 521.917C2018.43 502.707 2002.86 487.134 1983.65 487.134C1964.44 487.134 1948.87 502.707 1948.87 521.917C1948.87 541.127 1964.44 556.7 1983.65 556.7Z" fill="#0C89FF"/>
<path d="M1983.65 626.267C2002.86 626.267 2018.43 610.694 2018.43 591.483C2018.43 572.273 2002.86 556.7 1983.65 556.7C1964.44 556.7 1948.87 572.273 1948.87 591.483C1948.87 610.694 1964.44 626.267 1983.65 626.267Z" fill="#0C89FF"/>
<path d="M1983.65 695.834C2002.86 695.834 2018.43 680.261 2018.43 661.051C2018.43 641.841 2002.86 626.268 1983.65 626.268C1964.44 626.268 1948.87 641.841 1948.87 661.051C1948.87 680.261 1964.44 695.834 1983.65 695.834Z" fill="#0C89FF"/>
<path d="M2053.22 417.567C2072.43 417.567 2088 401.994 2088 382.783C2088 363.573 2072.43 348 2053.22 348C2034.01 348 2018.43 363.573 2018.43 382.783C2018.43 401.994 2034.01 417.567 2053.22 417.567Z" fill="#0C89FF"/>
<path d="M2053.22 487.133C2072.43 487.133 2088 471.56 2088 452.35C2088 433.14 2072.43 417.567 2053.22 417.567C2034.01 417.567 2018.43 433.14 2018.43 452.35C2018.43 471.56 2034.01 487.133 2053.22 487.133Z" fill="#0C89FF"/>
<path d="M2053.22 556.7C2072.43 556.7 2088 541.127 2088 521.917C2088 502.707 2072.43 487.134 2053.22 487.134C2034.01 487.134 2018.43 502.707 2018.43 521.917C2018.43 541.127 2034.01 556.7 2053.22 556.7Z" fill="#0C89FF"/>
<path d="M2053.22 626.267C2072.43 626.267 2088 610.694 2088 591.483C2088 572.273 2072.43 556.7 2053.22 556.7C2034.01 556.7 2018.43 572.273 2018.43 591.483C2018.43 610.694 2034.01 626.267 2053.22 626.267Z" fill="#0C89FF"/>
<path d="M2053.22 695.834C2072.43 695.834 2088 680.261 2088 661.051C2088 641.841 2072.43 626.268 2053.22 626.268C2034.01 626.268 2018.43 641.841 2018.43 661.051C2018.43 680.261 2034.01 695.834 2053.22 695.834Z" fill="#0C89FF"/>
<path d="M1914.08 417.567C1933.29 417.567 1948.87 401.994 1948.87 382.783C1948.87 363.573 1933.29 348 1914.08 348C1894.87 348 1879.3 363.573 1879.3 382.783C1879.3 401.994 1894.87 417.567 1914.08 417.567Z" fill="#0C89FF"/>
<path d="M1914.08 487.133C1933.29 487.133 1948.87 471.56 1948.87 452.35C1948.87 433.14 1933.29 417.567 1914.08 417.567C1894.87 417.567 1879.3 433.14 1879.3 452.35C1879.3 471.56 1894.87 487.133 1914.08 487.133Z" fill="#0C89FF"/>
<path d="M1914.08 556.7C1933.29 556.7 1948.87 541.127 1948.87 521.917C1948.87 502.707 1933.29 487.134 1914.08 487.134C1894.87 487.134 1879.3 502.707 1879.3 521.917C1879.3 541.127 1894.87 556.7 1914.08 556.7Z" fill="#0C89FF"/>
<path d="M1914.08 626.267C1933.29 626.267 1948.87 610.694 1948.87 591.483C1948.87 572.273 1933.29 556.7 1914.08 556.7C1894.87 556.7 1879.3 572.273 1879.3 591.483C1879.3 610.694 1894.87 626.267 1914.08 626.267Z" fill="#0C89FF"/>
<path d="M1914.08 695.834C1933.29 695.834 1948.87 680.261 1948.87 661.051C1948.87 641.841 1933.29 626.268 1914.08 626.268C1894.87 626.268 1879.3 641.841 1879.3 661.051C1879.3 680.261 1894.87 695.834 1914.08 695.834Z" fill="#0C89FF"/>
<path fill-rule="evenodd" clip-rule="evenodd" d="M174.917 695.833L261.875 608.875L348.833 695.833H174.917ZM87.9584 608.875L174.917 695.833H1L87.9584 608.875ZM87.9584 434.958L174.917 521.917L261.875 434.958L348.833 521.917V608.875L261.875 521.917L174.917 608.875L87.9584 521.917L1 608.875V521.917L87.9584 434.958ZM87.9584 348L1 434.958V348H87.9584ZM261.875 348H348.833V434.958L261.875 348ZM87.9584 348H261.875L174.917 434.958L87.9584 348Z" fill="#FD3F03"/>
<path fill-rule="evenodd" clip-rule="evenodd" d="M383.617 348L418.4 382.783L383.617 417.567L348.834 382.783L383.617 348Z" fill="#0C89FF"/>
<path fill-rule="evenodd" clip-rule="evenodd" d="M453.184 348L487.967 382.783L453.184 417.567L418.4 382.783L453.184 348Z" fill="#0C89FF"/>
<path fill-rule="evenodd" clip-rule="evenodd" d="M522.75 348L557.534 382.783L522.75 417.567L487.967 382.783L522.75 348Z" fill="#0C89FF"/>
<path fill-rule="evenodd" clip-rule="evenodd" d="M592.317 348L627.1 382.783L592.317 417.567L557.533 382.783L592.317 348Z" fill="#0C89FF"/>
<path fill-rule="evenodd" clip-rule="evenodd" d="M661.883 348L696.667 382.783L661.883 417.567L627.1 382.783L661.883 348Z" fill="#0C89FF"/>
<path fill-rule="evenodd" clip-rule="evenodd" d="M383.617 417.567L418.4 452.35L383.617 487.133L348.834 452.35L383.617 417.567Z" fill="#0C89FF"/>
<path fill-rule="evenodd" clip-rule="evenodd" d="M453.184 417.567L487.967 452.35L453.184 487.133L418.4 452.35L453.184 417.567Z" fill="#0C89FF"/>
<path fill-rule="evenodd" clip-rule="evenodd" d="M522.75 417.567L557.534 452.35L522.75 487.133L487.967 452.35L522.75 417.567Z" fill="#0C89FF"/>
<path fill-rule="evenodd" clip-rule="evenodd" d="M592.317 417.567L627.1 452.35L592.317 487.133L557.533 452.35L592.317 417.567Z" fill="#0C89FF"/>
<path fill-rule="evenodd" clip-rule="evenodd" d="M661.883 417.567L696.667 452.35L661.883 487.133L627.1 452.35L661.883 417.567Z" fill="#0C89FF"/>
<path fill-rule="evenodd" clip-rule="evenodd" d="M383.617 487.134L418.4 521.917L383.617 556.7L348.834 521.917L383.617 487.134Z" fill="#0C89FF"/>
<path fill-rule="evenodd" clip-rule="evenodd" d="M453.184 487.134L487.967 521.917L453.184 556.7L418.4 521.917L453.184 487.134Z" fill="#0C89FF"/>
<path fill-rule="evenodd" clip-rule="evenodd" d="M522.75 487.134L557.534 521.917L522.75 556.7L487.967 521.917L522.75 487.134Z" fill="#0C89FF"/>
<path fill-rule="evenodd" clip-rule="evenodd" d="M592.317 487.134L627.1 521.917L592.317 556.7L557.533 521.917L592.317 487.134Z" fill="#0C89FF"/>
<path fill-rule="evenodd" clip-rule="evenodd" d="M661.883 487.134L696.667 521.917L661.883 556.7L627.1 521.917L661.883 487.134Z" fill="#0C89FF"/>
<path fill-rule="evenodd" clip-rule="evenodd" d="M383.617 556.7L418.4 591.483L383.617 626.267L348.834 591.483L383.617 556.7Z" fill="#0C89FF"/>
<path fill-rule="evenodd" clip-rule="evenodd" d="M453.184 556.7L487.967 591.483L453.184 626.267L418.4 591.483L453.184 556.7Z" fill="#0C89FF"/>
<path fill-rule="evenodd" clip-rule="evenodd" d="M522.75 556.7L557.534 591.483L522.75 626.267L487.967 591.483L522.75 556.7Z" fill="#0C89FF"/>
<path fill-rule="evenodd" clip-rule="evenodd" d="M592.317 556.7L627.1 591.483L592.317 626.267L557.533 591.483L592.317 556.7Z" fill="#0C89FF"/>
<path fill-rule="evenodd" clip-rule="evenodd" d="M661.883 556.7L696.667 591.483L661.883 626.267L627.1 591.483L661.883 556.7Z" fill="#0C89FF"/>
<path fill-rule="evenodd" clip-rule="evenodd" d="M383.617 626.268L418.4 661.051L383.617 695.834L348.834 661.051L383.617 626.268Z" fill="#0C89FF"/>
<path fill-rule="evenodd" clip-rule="evenodd" d="M453.184 626.268L487.967 661.051L453.184 695.834L418.4 661.051L453.184 626.268Z" fill="#0C89FF"/>
<path fill-rule="evenodd" clip-rule="evenodd" d="M522.75 626.268L557.534 661.051L522.75 695.834L487.967 661.051L522.75 626.268Z" fill="#0C89FF"/>
<path fill-rule="evenodd" clip-rule="evenodd" d="M592.317 626.268L627.1 661.051L592.317 695.834L557.533 661.051L592.317 626.268Z" fill="#0C89FF"/>
<path fill-rule="evenodd" clip-rule="evenodd" d="M661.883 626.268L696.667 661.051L661.883 695.834L627.1 661.051L661.883 626.268Z" fill="#0C89FF"/>
<path fill-rule="evenodd" clip-rule="evenodd" d="M1044.5 348V695.833H696.667V348H1044.5ZM870.584 417.567C870.584 475.159 823.826 521.917 766.234 521.917C823.826 521.917 870.584 568.674 870.584 626.267C870.584 568.674 917.341 521.917 974.934 521.917C917.341 521.917 870.584 475.159 870.584 417.567Z" fill="#0C89FF"/>
<path fill-rule="evenodd" clip-rule="evenodd" d="M1140.36 384.305V348H1176.66V372.323H1152.7V384.305H1140.36ZM1044.5 480.16V455.837H1056.84V467.819H1068.46V443.855H1104.77V455.837H1116.39V443.855H1128.73V456.196H1116.75V467.819H1140.36V407.909H1152.34V395.928H1164.32V383.946H1188.64V408.269H1176.66V443.855H1200.62V456.196H1188.64V468.178H1176.66V479.801H1212.61V491.783H1224.59V503.765H1236.57V515.747H1248.19V503.765H1260.17V492.142H1236.21V479.801H1248.19V467.819H1260.17V455.837H1284.14V444.215H1248.55V456.196H1236.57V468.178H1224.23V455.837H1236.21V407.909H1248.19V396.287H1224.59V432.233H1212.25V396.287H1200.26V372.323H1188.28V359.982H1200.62V371.964H1212.25V348H1272.52V360.341H1260.53V371.964H1272.52V383.946H1284.5V408.269H1260.53V419.891H1272.52V431.873H1284.14V419.891H1296.48V432.233H1284.5V443.855H1332.42V455.837H1356.03V443.855H1392.33V468.178H1379.99V456.196H1356.39V468.178H1332.07V456.196H1320.44V491.783H1332.42V503.765H1356.03V492.142H1344.05V479.801H1356.39V491.783H1368.01V479.801H1380.35V491.783H1392.33V516.106H1368.01V504.124H1356.39V516.106H1332.42V527.728H1356.39V539.71H1368.37V551.692H1379.99V527.728H1392.33V564.034H1368.01V552.052H1356.39V587.638H1368.37V599.62H1392.33V611.961H1368.01V599.979H1356.39V611.961H1344.41V623.584H1356.39V635.565H1379.99V623.584H1392.33V635.925H1380.35V647.907H1332.42V659.529H1380.35V683.852H1368.37V695.834H1356.03V683.493H1368.01V671.871H1344.41V695.834H1332.07V671.871H1308.46V683.493H1320.44V695.834H1308.1V683.852H1296.12V671.871H1284.5V695.834H1260.17V683.852H1248.19V671.871H1236.57V695.834H1200.26V683.493H1212.25V671.871H1188.28V659.889H1176.66V683.493H1188.64V695.834H1152.34V683.493H1164.32V671.871H1140.36V635.565H1164.68V647.547H1188.64V659.529H1212.25V647.907H1200.26V635.565H1224.59V647.547H1236.21V623.943H1212.25V611.961H1200.62V623.943H1188.64V635.925H1176.3V623.943H1164.32V611.961H1140.36V599.979H1080.45V587.638H1092.43V551.692H1104.41V504.124H1092.79V516.106H1056.84V551.692H1068.82V563.674H1080.81V576.015H1068.46V564.034H1056.84V599.979H1044.5V515.747H1056.48V491.783H1080.45V480.16H1044.5ZM1080.81 456.196V467.819H1092.79V479.801H1104.41V456.196H1080.81ZM1152.34 480.16H1104.77V491.783H1128.73V503.765H1140.71V527.728H1152.7V552.052H1140.36V528.088H1116.75V539.71H1128.73V552.052H1116.75V563.674H1128.73V576.015H1116.75V587.638H1140.36V575.656H1164.32V551.692H1188.28V539.71H1200.62V564.034H1188.64V575.656H1200.62V587.638H1212.61V611.602H1236.57V623.584H1248.19V611.602H1260.17V599.979H1248.19V552.052H1236.21V540.07H1212.25V527.728H1236.21V516.106H1200.62V528.088H1176.66V540.07H1164.32V527.728H1176.3V516.106H1164.32V503.765H1176.66V515.747H1200.26V503.765H1212.25V492.142H1152.34V480.16ZM1152.7 456.196V467.819H1176.3V456.196H1152.7ZM1152.7 408.269V443.855H1164.32V408.269H1152.7ZM1248.55 516.106V539.71H1260.17V516.106H1248.55ZM1272.52 492.142V503.765H1284.14V492.142H1272.52ZM1284.5 456.196V468.178H1272.52V479.801H1284.5V491.783H1296.12V467.819H1308.1V456.196H1284.5ZM1248.55 431.873H1260.17V420.251H1248.55V431.873ZM1224.23 395.928V384.305H1212.61V395.928H1224.23ZM1224.59 360.341V371.964H1248.19V360.341H1224.59ZM1260.17 372.323H1248.55V383.946H1260.17V372.323ZM1272.16 384.305H1260.53V395.928H1272.16V384.305ZM1320.08 492.142H1308.46V503.765H1320.08V492.142ZM1332.07 504.124H1320.44V515.747H1332.07V504.124ZM1332.07 528.088H1320.44V540.07H1308.1V528.088H1284.14V516.106H1272.52V540.07H1260.53V551.692H1284.14V539.71H1296.48V551.692H1308.46V563.674H1320.08V551.692H1332.07V528.088ZM1320.08 527.728V516.106H1308.46V527.728H1320.08ZM1344.05 587.638V564.034H1332.42V587.638H1344.05ZM1332.07 635.565V599.979H1296.48V635.565H1332.07ZM1320.08 659.529V647.907H1308.46V659.529H1320.08ZM1248.55 671.511H1260.17V635.925H1248.55V647.907H1236.57V659.529H1248.55V671.511ZM1236.21 671.511V659.889H1212.61V671.511H1236.21ZM1152.7 659.529H1164.32V647.907H1152.7V659.529ZM1200.26 611.602V599.979H1188.64V611.602H1200.26ZM1188.28 623.584V611.961H1176.66V623.584H1188.28ZM1164.68 611.602H1176.3V599.979H1164.68V611.602ZM1140.71 599.62H1164.32V587.997H1140.71V599.62ZM1116.75 504.124V515.747H1128.37V504.124H1116.75ZM1164.68 576.015V587.638H1176.3V576.015H1164.68ZM1260.53 599.62H1284.14V587.638H1308.1V564.034H1260.53V575.656H1272.52V587.997H1260.53V599.62ZM1272.52 635.925V647.547H1284.14V635.925H1272.52ZM1224.23 564.034H1212.25V551.692H1224.59V563.674H1236.57V599.979H1224.23V564.034ZM1320.44 611.602V623.943H1308.1V611.602H1320.44ZM1200.62 419.892V432.234H1188.28V419.892H1200.62ZM1080.81 527.729V540.071H1068.46V527.729H1080.81ZM1392.33 575.657V587.998H1379.99V575.657H1392.33ZM1044.5 348.002H1128.37V431.875H1044.5V348.002ZM1116.39 419.893V359.984H1056.48V419.893H1116.39ZM1104.41 371.966V407.911H1068.46V371.966H1104.41ZM1308.1 348.002H1391.97V431.875H1308.1V348.002ZM1379.99 419.893V359.984H1320.08V419.893H1379.99ZM1368.01 371.966V407.911H1332.06V371.966H1368.01ZM1044.5 611.603H1128.37V695.476H1044.5V611.603ZM1116.39 683.494V623.585H1056.48V683.494H1116.39ZM1104.41 635.566V671.512H1068.46V635.566H1104.41Z" fill="#FFC90F"/>
<path fill-rule="evenodd" clip-rule="evenodd" d="M1740.17 348V695.833H1392.33V348H1740.17ZM1566.25 384.361C1489.46 384.361 1427.12 445.998 1427.12 521.917C1427.12 597.836 1489.46 659.472 1566.25 659.472C1643.04 659.472 1705.38 597.835 1705.38 521.917C1705.38 445.997 1643.04 384.361 1566.25 384.361ZM1566.25 418.75C1623.84 418.75 1670.6 464.978 1670.6 521.918C1670.6 578.857 1623.84 625.085 1566.25 625.085C1508.66 625.085 1461.9 578.857 1461.9 521.918C1461.9 464.978 1508.66 418.75 1566.25 418.75ZM1566.25 452.351C1527.86 452.351 1496.68 483.523 1496.68 521.918C1496.68 560.313 1527.86 591.484 1566.25 591.484C1604.65 591.484 1635.82 560.313 1635.82 521.918C1635.82 483.523 1604.65 452.351 1566.25 452.351ZM1566.25 487.134C1585.45 487.134 1601.03 502.72 1601.03 521.918C1601.03 541.115 1585.45 556.701 1566.25 556.701C1547.05 556.701 1531.47 541.115 1531.47 521.918C1531.47 502.72 1547.05 487.134 1566.25 487.134Z" fill="#FD3F03"/>
<path d="M105.351 765.401C124.561 765.401 140.134 749.828 140.134 730.618C140.134 711.408 124.561 695.834 105.351 695.834C86.1404 695.834 70.5674 711.408 70.5674 730.618C70.5674 749.828 86.1404 765.401 105.351 765.401Z" fill="#FFC90F"/>
<path d="M105.351 834.968C124.561 834.968 140.134 819.395 140.134 800.184C140.134 780.974 124.561 765.401 105.351 765.401C86.1404 765.401 70.5674 780.974 70.5674 800.184C70.5674 819.395 86.1404 834.968 105.351 834.968Z" fill="#FFC90F"/>
<path d="M105.351 904.534C124.561 904.534 140.134 888.961 140.134 869.751C140.134 850.541 124.561 834.968 105.351 834.968C86.1404 834.968 70.5674 850.541 70.5674 869.751C70.5674 888.961 86.1404 904.534 105.351 904.534Z" fill="#FFC90F"/>
<path d="M105.351 974.101C124.561 974.101 140.134 958.528 140.134 939.318C140.134 920.107 124.561 904.534 105.351 904.534C86.1404 904.534 70.5674 920.107 70.5674 939.318C70.5674 958.528 86.1404 974.101 105.351 974.101Z" fill="#FFC90F"/>
<path d="M105.351 1043.67C124.561 1043.67 140.134 1028.09 140.134 1008.88C140.134 989.674 124.561 974.101 105.351 974.101C86.1404 974.101 70.5674 989.674 70.5674 1008.88C70.5674 1028.09 86.1404 1043.67 105.351 1043.67Z" fill="#FFC90F"/>
<path d="M35.7841 765.401C54.9944 765.401 70.5674 749.828 70.5674 730.618C70.5674 711.408 54.9944 695.834 35.7841 695.834C16.5738 695.834 1.00073 711.408 1.00073 730.618C1.00073 749.828 16.5738 765.401 35.7841 765.401Z" fill="#FFC90F"/>
<path d="M35.7841 834.968C54.9944 834.968 70.5674 819.395 70.5674 800.184C70.5674 780.974 54.9944 765.401 35.7841 765.401C16.5738 765.401 1.00073 780.974 1.00073 800.184C1.00073 819.395 16.5738 834.968 35.7841 834.968Z" fill="#FFC90F"/>
<path d="M35.7841 904.534C54.9944 904.534 70.5674 888.961 70.5674 869.751C70.5674 850.541 54.9944 834.968 35.7841 834.968C16.5738 834.968 1.00073 850.541 1.00073 869.751C1.00073 888.961 16.5738 904.534 35.7841 904.534Z" fill="#FFC90F"/>
<path d="M35.7841 974.101C54.9944 974.101 70.5674 958.528 70.5674 939.318C70.5674 920.107 54.9944 904.534 35.7841 904.534C16.5738 904.534 1.00073 920.107 1.00073 939.318C1.00073 958.528 16.5738 974.101 35.7841 974.101Z" fill="#FFC90F"/>
<path d="M35.7841 1043.67C54.9944 1043.67 70.5674 1028.09 70.5674 1008.88C70.5674 989.674 54.9944 974.101 35.7841 974.101C16.5738 974.101 1.00073 989.674 1.00073 1008.88C1.00073 1028.09 16.5738 1043.67 35.7841 1043.67Z" fill="#FFC90F"/>
<path d="M244.484 765.401C263.694 765.401 279.267 749.828 279.267 730.618C279.267 711.408 263.694 695.834 244.484 695.834C225.274 695.834 209.701 711.408 209.701 730.618C209.701 749.828 225.274 765.401 244.484 765.401Z" fill="#FFC90F"/>
<path d="M244.484 834.968C263.694 834.968 279.267 819.395 279.267 800.184C279.267 780.974 263.694 765.401 244.484 765.401C225.274 765.401 209.701 780.974 209.701 800.184C209.701 819.395 225.274 834.968 244.484 834.968Z" fill="#FFC90F"/>
<path d="M244.484 904.534C263.694 904.534 279.267 888.961 279.267 869.751C279.267 850.541 263.694 834.968 244.484 834.968C225.274 834.968 209.701 850.541 209.701 869.751C209.701 888.961 225.274 904.534 244.484 904.534Z" fill="#FFC90F"/>
<path d="M244.484 974.101C263.694 974.101 279.267 958.528 279.267 939.318C279.267 920.107 263.694 904.534 244.484 904.534C225.274 904.534 209.701 920.107 209.701 939.318C209.701 958.528 225.274 974.101 244.484 974.101Z" fill="#FFC90F"/>
<path d="M244.484 1043.67C263.694 1043.67 279.267 1028.09 279.267 1008.88C279.267 989.674 263.694 974.101 244.484 974.101C225.274 974.101 209.701 989.674 209.701 1008.88C209.701 1028.09 225.274 1043.67 244.484 1043.67Z" fill="#FFC90F"/>
<path d="M174.917 765.401C194.128 765.401 209.701 749.828 209.701 730.618C209.701 711.408 194.128 695.834 174.917 695.834C155.707 695.834 140.134 711.408 140.134 730.618C140.134 749.828 155.707 765.401 174.917 765.401Z" fill="#FFC90F"/>
<path d="M174.917 834.968C194.128 834.968 209.701 819.395 209.701 800.184C209.701 780.974 194.128 765.401 174.917 765.401C155.707 765.401 140.134 780.974 140.134 800.184C140.134 819.395 155.707 834.968 174.917 834.968Z" fill="#FFC90F"/>
<path d="M174.917 904.534C194.128 904.534 209.701 888.961 209.701 869.751C209.701 850.541 194.128 834.968 174.917 834.968C155.707 834.968 140.134 850.541 140.134 869.751C140.134 888.961 155.707 904.534 174.917 904.534Z" fill="#FFC90F"/>
<path d="M174.917 974.101C194.128 974.101 209.701 958.528 209.701 939.318C209.701 920.107 194.128 904.534 174.917 904.534C155.707 904.534 140.134 920.107 140.134 939.318C140.134 958.528 155.707 974.101 174.917 974.101Z" fill="#FFC90F"/>
<path d="M174.917 1043.67C194.128 1043.67 209.701 1028.09 209.701 1008.88C209.701 989.674 194.128 974.101 174.917 974.101C155.707 974.101 140.134 989.674 140.134 1008.88C140.134 1028.09 155.707 1043.67 174.917 1043.67Z" fill="#FFC90F"/>
<path d="M314.051 765.401C333.261 765.401 348.834 749.828 348.834 730.618C348.834 711.408 333.261 695.834 314.051 695.834C294.84 695.834 279.267 711.408 279.267 730.618C279.267 749.828 294.84 765.401 314.051 765.401Z" fill="#FFC90F"/>
<path d="M314.051 834.968C333.261 834.968 348.834 819.395 348.834 800.184C348.834 780.974 333.261 765.401 314.051 765.401C294.84 765.401 279.267 780.974 279.267 800.184C279.267 819.395 294.84 834.968 314.051 834.968Z" fill="#FFC90F"/>
<path d="M314.051 904.534C333.261 904.534 348.834 888.961 348.834 869.751C348.834 850.541 333.261 834.968 314.051 834.968C294.84 834.968 279.267 850.541 279.267 869.751C279.267 888.961 294.84 904.534 314.051 904.534Z" fill="#FFC90F"/>
<path d="M314.051 974.101C333.261 974.101 348.834 958.528 348.834 939.318C348.834 920.107 333.261 904.534 314.051 904.534C294.84 904.534 279.267 920.107 279.267 939.318C279.267 958.528 294.84 974.101 314.051 974.101Z" fill="#FFC90F"/>
<path d="M314.051 1043.67C333.261 1043.67 348.834 1028.09 348.834 1008.88C348.834 989.674 333.261 974.101 314.051 974.101C294.84 974.101 279.267 989.674 279.267 1008.88C279.267 1028.09 294.84 1043.67 314.051 1043.67Z" fill="#FFC90F"/>
<path fill-rule="evenodd" clip-rule="evenodd" d="M696.667 695.834V1043.67H348.834V695.834H696.667ZM522.751 732.196C445.961 732.196 383.617 793.833 383.617 869.751C383.617 945.671 445.961 1007.31 522.751 1007.31C599.541 1007.31 661.884 945.67 661.884 869.751C661.884 793.832 599.541 732.196 522.751 732.196ZM522.751 766.585C580.343 766.585 627.101 812.813 627.101 869.752C627.101 926.691 580.343 972.919 522.751 972.919C465.158 972.919 418.401 926.691 418.401 869.752C418.401 812.813 465.158 766.585 522.751 766.585ZM522.751 800.185C484.356 800.185 453.184 831.357 453.184 869.752C453.184 908.147 484.356 939.319 522.751 939.319C561.146 939.319 592.317 908.147 592.317 869.752C592.317 831.357 561.146 800.185 522.751 800.185ZM522.751 834.969C541.948 834.969 557.534 850.555 557.534 869.752C557.534 888.95 541.948 904.535 522.751 904.535C503.553 904.535 487.967 888.95 487.967 869.752C487.967 850.555 503.553 834.969 522.751 834.969Z" fill="#FD3F03"/>
<path fill-rule="evenodd" clip-rule="evenodd" d="M1740.17 695.834H1914.08V869.751L1740.17 695.834Z" fill="#FFC90F"/>
<path fill-rule="evenodd" clip-rule="evenodd" d="M2088 695.834V869.751H1914.08L2088 695.834Z" fill="#FFC90F"/>
<path fill-rule="evenodd" clip-rule="evenodd" d="M2088 1043.67H1914.08V869.751L2088 1043.67Z" fill="#FFC90F"/>
<path fill-rule="evenodd" clip-rule="evenodd" d="M1740.17 1043.67V869.751H1914.08L1740.17 1043.67Z" fill="#FFC90F"/>
<path fill-rule="evenodd" clip-rule="evenodd" d="M1392.33 695.834V1043.67H1044.5V695.834H1392.33ZM1218.42 743.14C1148.54 743.14 1091.81 799.872 1091.81 869.751C1091.81 939.63 1148.54 996.363 1218.42 996.363C1288.3 996.363 1345.03 939.63 1345.03 869.751C1345.03 799.872 1288.3 743.14 1218.42 743.14Z" fill="#FFC90F"/>
<path fill-rule="evenodd" clip-rule="evenodd" d="M870.584 1043.67L783.626 956.709L870.584 869.751V1043.67Z" fill="#2F7339"/>
<path fill-rule="evenodd" clip-rule="evenodd" d="M696.667 869.751L783.626 956.709L696.667 1043.67V869.751Z" fill="#2F7339"/>
<path fill-rule="evenodd" clip-rule="evenodd" d="M870.584 1043.67L957.542 956.709L1044.5 1043.67H870.584Z" fill="#2F7339"/>
<path fill-rule="evenodd" clip-rule="evenodd" d="M1044.5 869.751L957.542 956.709L870.584 869.751H1044.5Z" fill="#2F7339"/>
<path fill-rule="evenodd" clip-rule="evenodd" d="M870.584 695.834L957.542 782.793L870.584 869.751V695.834Z" fill="#2F7339"/>
<path fill-rule="evenodd" clip-rule="evenodd" d="M1044.5 869.751L957.542 782.793L1044.5 695.834V869.751Z" fill="#2F7339"/>
<path fill-rule="evenodd" clip-rule="evenodd" d="M870.584 695.834L783.626 782.793L696.667 695.834H870.584Z" fill="#2F7339"/>
<path fill-rule="evenodd" clip-rule="evenodd" d="M696.667 869.751L783.626 782.793L870.584 869.751H696.667Z" fill="#2F7339"/>
<path fill-rule="evenodd" clip-rule="evenodd" d="M1653.21 695.834C1653.21 743.828 1692.17 782.793 1740.17 782.793C1692.17 782.793 1653.21 821.758 1653.21 869.751C1653.21 821.758 1614.24 782.793 1566.25 782.793C1614.24 782.793 1653.21 743.828 1653.21 695.834Z" fill="#0C89FF"/>
<path fill-rule="evenodd" clip-rule="evenodd" d="M1479.29 695.834C1479.29 743.828 1518.26 782.793 1566.25 782.793C1518.26 782.793 1479.29 821.758 1479.29 869.751C1479.29 821.758 1440.33 782.793 1392.33 782.793C1440.33 782.793 1479.29 743.828 1479.29 695.834Z" fill="#0C89FF"/>
<path fill-rule="evenodd" clip-rule="evenodd" d="M1479.29 869.751C1479.29 917.744 1518.26 956.709 1566.25 956.709C1518.26 956.709 1479.29 995.674 1479.29 1043.67C1479.29 995.674 1440.33 956.709 1392.33 956.709C1440.33 956.709 1479.29 917.744 1479.29 869.751Z" fill="#0C89FF"/>
<path fill-rule="evenodd" clip-rule="evenodd" d="M1653.21 869.751C1653.21 917.744 1692.17 956.709 1740.17 956.709C1692.17 956.709 1653.21 995.674 1653.21 1043.67C1653.21 995.674 1614.24 956.709 1566.25 956.709C1614.24 956.709 1653.21 917.744 1653.21 869.751Z" fill="#0C89FF"/>
<path fill-rule="evenodd" clip-rule="evenodd" d="M348 1043.67V1391.67H0.000244141V1043.67H348ZM261 1130.67H87.0003V1304.67H261V1130.67Z" fill="#2F7339"/>
<path fill-rule="evenodd" clip-rule="evenodd" d="M522 1043.67V1217.67H348C348 1121.63 425.967 1043.67 522 1043.67Z" fill="#FD3F03"/>
<path fill-rule="evenodd" clip-rule="evenodd" d="M522 1043.67H696V1217.67C599.966 1217.67 522 1139.7 522 1043.67Z" fill="#FD3F03"/>
<path fill-rule="evenodd" clip-rule="evenodd" d="M522 1391.67V1217.67H696C696 1313.7 618.033 1391.67 522 1391.67Z" fill="#FD3F03"/>
<path fill-rule="evenodd" clip-rule="evenodd" d="M522 1391.67H348V1217.67C444.034 1217.67 522 1295.63 522 1391.67Z" fill="#FD3F03"/>
<path fill-rule="evenodd" clip-rule="evenodd" d="M2088 1043.67V1391.67H1740V1043.67H2088ZM1914 1113.27C1914 1170.89 1867.22 1217.67 1809.6 1217.67C1867.22 1217.67 1914 1264.45 1914 1322.07C1914 1264.45 1960.78 1217.67 2018.4 1217.67C1960.78 1217.67 1914 1170.89 1914 1113.27Z" fill="#2F7339"/>
<path fill-rule="evenodd" clip-rule="evenodd" d="M1044 1217.67L1218 1391.67H1044V1217.67Z" fill="#2F7339"/>
<path fill-rule="evenodd" clip-rule="evenodd" d="M1044 1217.67V1043.67H1218L1044 1217.67Z" fill="#2F7339"/>
<path fill-rule="evenodd" clip-rule="evenodd" d="M1392 1217.67V1391.67L1218 1217.67H1392Z" fill="#2F7339"/>
<path fill-rule="evenodd" clip-rule="evenodd" d="M1218 1217.67L1392 1043.67V1217.67H1218Z" fill="#2F7339"/>
<path fill-rule="evenodd" clip-rule="evenodd" d="M696 1043.67H870V1217.67L696 1043.67Z" fill="#FFC90F"/>
<path fill-rule="evenodd" clip-rule="evenodd" d="M1044 1043.67V1217.67H870.001L1044 1043.67Z" fill="#FFC90F"/>
<path fill-rule="evenodd" clip-rule="evenodd" d="M1044 1391.67H870.001V1217.67L1044 1391.67Z" fill="#FFC90F"/>
<path fill-rule="evenodd" clip-rule="evenodd" d="M696 1391.67V1217.67H870L696 1391.67Z" fill="#FFC90F"/>
<path fill-rule="evenodd" clip-rule="evenodd" d="M1740 1043.67V1391.67H1392V1043.67H1740ZM1566 1159.48C1544.02 1109.41 1500.06 1109.41 1478.09 1130.29C1456.11 1151.17 1456.11 1192.93 1478.09 1234.69C1493.47 1266.01 1533.03 1297.33 1566 1318.21C1598.97 1297.33 1638.53 1266.01 1653.92 1234.69C1675.9 1192.93 1675.9 1151.17 1653.92 1130.29C1631.94 1109.41 1587.98 1109.41 1566 1159.48Z" fill="#0C89FF"/>
<path d="M1774.95 1461.23C1794.16 1461.23 1809.73 1445.66 1809.73 1426.45C1809.73 1407.24 1794.16 1391.67 1774.95 1391.67C1755.74 1391.67 1740.17 1407.24 1740.17 1426.45C1740.17 1445.66 1755.74 1461.23 1774.95 1461.23Z" fill="#0C89FF"/>
<path d="M1774.95 1530.8C1794.16 1530.8 1809.73 1515.23 1809.73 1496.02C1809.73 1476.81 1794.16 1461.23 1774.95 1461.23C1755.74 1461.23 1740.17 1476.81 1740.17 1496.02C1740.17 1515.23 1755.74 1530.8 1774.95 1530.8Z" fill="#0C89FF"/>
<path d="M1774.95 1600.37C1794.16 1600.37 1809.73 1584.8 1809.73 1565.58C1809.73 1546.37 1794.16 1530.8 1774.95 1530.8C1755.74 1530.8 1740.17 1546.37 1740.17 1565.58C1740.17 1584.8 1755.74 1600.37 1774.95 1600.37Z" fill="#0C89FF"/>
<path d="M1774.95 1669.93C1794.16 1669.93 1809.73 1654.36 1809.73 1635.15C1809.73 1615.94 1794.16 1600.37 1774.95 1600.37C1755.74 1600.37 1740.17 1615.94 1740.17 1635.15C1740.17 1654.36 1755.74 1669.93 1774.95 1669.93Z" fill="#0C89FF"/>
<path d="M1774.95 1739.5C1794.16 1739.5 1809.73 1723.93 1809.73 1704.72C1809.73 1685.51 1794.16 1669.94 1774.95 1669.94C1755.74 1669.94 1740.17 1685.51 1740.17 1704.72C1740.17 1723.93 1755.74 1739.5 1774.95 1739.5Z" fill="#0C89FF"/>
<path d="M1844.52 1461.23C1863.73 1461.23 1879.3 1445.66 1879.3 1426.45C1879.3 1407.24 1863.73 1391.67 1844.52 1391.67C1825.31 1391.67 1809.73 1407.24 1809.73 1426.45C1809.73 1445.66 1825.31 1461.23 1844.52 1461.23Z" fill="#0C89FF"/>
<path d="M1844.52 1530.8C1863.73 1530.8 1879.3 1515.23 1879.3 1496.02C1879.3 1476.81 1863.73 1461.23 1844.52 1461.23C1825.31 1461.23 1809.73 1476.81 1809.73 1496.02C1809.73 1515.23 1825.31 1530.8 1844.52 1530.8Z" fill="#0C89FF"/>
<path d="M1844.52 1600.37C1863.73 1600.37 1879.3 1584.8 1879.3 1565.58C1879.3 1546.37 1863.73 1530.8 1844.52 1530.8C1825.31 1530.8 1809.73 1546.37 1809.73 1565.58C1809.73 1584.8 1825.31 1600.37 1844.52 1600.37Z" fill="#0C89FF"/>
<path d="M1844.52 1669.93C1863.73 1669.93 1879.3 1654.36 1879.3 1635.15C1879.3 1615.94 1863.73 1600.37 1844.52 1600.37C1825.31 1600.37 1809.73 1615.94 1809.73 1635.15C1809.73 1654.36 1825.31 1669.93 1844.52 1669.93Z" fill="#0C89FF"/>
<path d="M1844.52 1739.5C1863.73 1739.5 1879.3 1723.93 1879.3 1704.72C1879.3 1685.51 1863.73 1669.94 1844.52 1669.94C1825.31 1669.94 1809.73 1685.51 1809.73 1704.72C1809.73 1723.93 1825.31 1739.5 1844.52 1739.5Z" fill="#0C89FF"/>
<path d="M1983.65 1461.23C2002.86 1461.23 2018.43 1445.66 2018.43 1426.45C2018.43 1407.24 2002.86 1391.67 1983.65 1391.67C1964.44 1391.67 1948.87 1407.24 1948.87 1426.45C1948.87 1445.66 1964.44 1461.23 1983.65 1461.23Z" fill="#0C89FF"/>
<path d="M1983.65 1530.8C2002.86 1530.8 2018.43 1515.23 2018.43 1496.02C2018.43 1476.81 2002.86 1461.23 1983.65 1461.23C1964.44 1461.23 1948.87 1476.81 1948.87 1496.02C1948.87 1515.23 1964.44 1530.8 1983.65 1530.8Z" fill="#0C89FF"/>
<path d="M1983.65 1600.37C2002.86 1600.37 2018.43 1584.8 2018.43 1565.58C2018.43 1546.37 2002.86 1530.8 1983.65 1530.8C1964.44 1530.8 1948.87 1546.37 1948.87 1565.58C1948.87 1584.8 1964.44 1600.37 1983.65 1600.37Z" fill="#0C89FF"/>
<path d="M1983.65 1669.93C2002.86 1669.93 2018.43 1654.36 2018.43 1635.15C2018.43 1615.94 2002.86 1600.37 1983.65 1600.37C1964.44 1600.37 1948.87 1615.94 1948.87 1635.15C1948.87 1654.36 1964.44 1669.93 1983.65 1669.93Z" fill="#0C89FF"/>
<path d="M1983.65 1739.5C2002.86 1739.5 2018.43 1723.93 2018.43 1704.72C2018.43 1685.51 2002.86 1669.94 1983.65 1669.94C1964.44 1669.94 1948.87 1685.51 1948.87 1704.72C1948.87 1723.93 1964.44 1739.5 1983.65 1739.5Z" fill="#0C89FF"/>
<path d="M2053.22 1461.23C2072.43 1461.23 2088 1445.66 2088 1426.45C2088 1407.24 2072.43 1391.67 2053.22 1391.67C2034.01 1391.67 2018.43 1407.24 2018.43 1426.45C2018.43 1445.66 2034.01 1461.23 2053.22 1461.23Z" fill="#0C89FF"/>
<path d="M2053.22 1530.8C2072.43 1530.8 2088 1515.23 2088 1496.02C2088 1476.81 2072.43 1461.23 2053.22 1461.23C2034.01 1461.23 2018.43 1476.81 2018.43 1496.02C2018.43 1515.23 2034.01 1530.8 2053.22 1530.8Z" fill="#0C89FF"/>
<path d="M2053.22 1600.37C2072.43 1600.37 2088 1584.8 2088 1565.58C2088 1546.37 2072.43 1530.8 2053.22 1530.8C2034.01 1530.8 2018.43 1546.37 2018.43 1565.58C2018.43 1584.8 2034.01 1600.37 2053.22 1600.37Z" fill="#0C89FF"/>
<path d="M2053.22 1669.93C2072.43 1669.93 2088 1654.36 2088 1635.15C2088 1615.94 2072.43 1600.37 2053.22 1600.37C2034.01 1600.37 2018.43 1615.94 2018.43 1635.15C2018.43 1654.36 2034.01 1669.93 2053.22 1669.93Z" fill="#0C89FF"/>
<path d="M2053.22 1739.5C2072.43 1739.5 2088 1723.93 2088 1704.72C2088 1685.51 2072.43 1669.94 2053.22 1669.94C2034.01 1669.94 2018.43 1685.51 2018.43 1704.72C2018.43 1723.93 2034.01 1739.5 2053.22 1739.5Z" fill="#0C89FF"/>
<path d="M1914.08 1461.23C1933.29 1461.23 1948.87 1445.66 1948.87 1426.45C1948.87 1407.24 1933.29 1391.67 1914.08 1391.67C1894.87 1391.67 1879.3 1407.24 1879.3 1426.45C1879.3 1445.66 1894.87 1461.23 1914.08 1461.23Z" fill="#0C89FF"/>
<path d="M1914.08 1530.8C1933.29 1530.8 1948.87 1515.23 1948.87 1496.02C1948.87 1476.81 1933.29 1461.23 1914.08 1461.23C1894.87 1461.23 1879.3 1476.81 1879.3 1496.02C1879.3 1515.23 1894.87 1530.8 1914.08 1530.8Z" fill="#0C89FF"/>
<path d="M1914.08 1600.37C1933.29 1600.37 1948.87 1584.8 1948.87 1565.58C1948.87 1546.37 1933.29 1530.8 1914.08 1530.8C1894.87 1530.8 1879.3 1546.37 1879.3 1565.58C1879.3 1584.8 1894.87 1600.37 1914.08 1600.37Z" fill="#0C89FF"/>
<path d="M1914.08 1669.93C1933.29 1669.93 1948.87 1654.36 1948.87 1635.15C1948.87 1615.94 1933.29 1600.37 1914.08 1600.37C1894.87 1600.37 1879.3 1615.94 1879.3 1635.15C1879.3 1654.36 1894.87 1669.93 1914.08 1669.93Z" fill="#0C89FF"/>
<path d="M1914.08 1739.5C1933.29 1739.5 1948.87 1723.93 1948.87 1704.72C1948.87 1685.51 1933.29 1669.94 1914.08 1669.94C1894.87 1669.94 1879.3 1685.51 1879.3 1704.72C1879.3 1723.93 1894.87 1739.5 1914.08 1739.5Z" fill="#0C89FF"/>
<path fill-rule="evenodd" clip-rule="evenodd" d="M174.917 1739.5L261.875 1652.54L348.833 1739.5H174.917ZM87.9584 1652.54L174.917 1739.5H1L87.9584 1652.54ZM87.9584 1478.63L174.917 1565.58L261.875 1478.63L348.833 1565.58V1652.54L261.875 1565.58L174.917 1652.54L87.9584 1565.58L1 1652.54V1565.58L87.9584 1478.63ZM87.9584 1391.67L1 1478.63V1391.67H87.9584ZM261.875 1391.67H348.833V1478.63L261.875 1391.67ZM87.9584 1391.67H261.875L174.917 1478.63L87.9584 1391.67Z" fill="#FD3F03"/>
<path fill-rule="evenodd" clip-rule="evenodd" d="M383.617 1391.67L418.4 1426.45L383.617 1461.23L348.834 1426.45L383.617 1391.67Z" fill="#0C89FF"/>
<path fill-rule="evenodd" clip-rule="evenodd" d="M453.184 1391.67L487.967 1426.45L453.184 1461.23L418.4 1426.45L453.184 1391.67Z" fill="#0C89FF"/>
<path fill-rule="evenodd" clip-rule="evenodd" d="M522.75 1391.67L557.534 1426.45L522.75 1461.23L487.967 1426.45L522.75 1391.67Z" fill="#0C89FF"/>
<path fill-rule="evenodd" clip-rule="evenodd" d="M592.317 1391.67L627.1 1426.45L592.317 1461.23L557.533 1426.45L592.317 1391.67Z" fill="#0C89FF"/>
<path fill-rule="evenodd" clip-rule="evenodd" d="M661.883 1391.67L696.667 1426.45L661.883 1461.23L627.1 1426.45L661.883 1391.67Z" fill="#0C89FF"/>
<path fill-rule="evenodd" clip-rule="evenodd" d="M383.617 1461.23L418.4 1496.02L383.617 1530.8L348.834 1496.02L383.617 1461.23Z" fill="#0C89FF"/>
<path fill-rule="evenodd" clip-rule="evenodd" d="M453.184 1461.23L487.967 1496.02L453.184 1530.8L418.4 1496.02L453.184 1461.23Z" fill="#0C89FF"/>
<path fill-rule="evenodd" clip-rule="evenodd" d="M522.75 1461.23L557.534 1496.02L522.75 1530.8L487.967 1496.02L522.75 1461.23Z" fill="#0C89FF"/>
<path fill-rule="evenodd" clip-rule="evenodd" d="M592.317 1461.23L627.1 1496.02L592.317 1530.8L557.533 1496.02L592.317 1461.23Z" fill="#0C89FF"/>
<path fill-rule="evenodd" clip-rule="evenodd" d="M661.883 1461.23L696.667 1496.02L661.883 1530.8L627.1 1496.02L661.883 1461.23Z" fill="#0C89FF"/>
<path fill-rule="evenodd" clip-rule="evenodd" d="M383.617 1530.8L418.4 1565.58L383.617 1600.37L348.834 1565.58L383.617 1530.8Z" fill="#0C89FF"/>
<path fill-rule="evenodd" clip-rule="evenodd" d="M453.184 1530.8L487.967 1565.58L453.184 1600.37L418.4 1565.58L453.184 1530.8Z" fill="#0C89FF"/>
<path fill-rule="evenodd" clip-rule="evenodd" d="M522.75 1530.8L557.534 1565.58L522.75 1600.37L487.967 1565.58L522.75 1530.8Z" fill="#0C89FF"/>
<path fill-rule="evenodd" clip-rule="evenodd" d="M592.317 1530.8L627.1 1565.58L592.317 1600.37L557.533 1565.58L592.317 1530.8Z" fill="#0C89FF"/>
<path fill-rule="evenodd" clip-rule="evenodd" d="M661.883 1530.8L696.667 1565.58L661.883 1600.37L627.1 1565.58L661.883 1530.8Z" fill="#0C89FF"/>
<path fill-rule="evenodd" clip-rule="evenodd" d="M383.617 1600.37L418.4 1635.15L383.617 1669.93L348.834 1635.15L383.617 1600.37Z" fill="#0C89FF"/>
<path fill-rule="evenodd" clip-rule="evenodd" d="M453.184 1600.37L487.967 1635.15L453.184 1669.93L418.4 1635.15L453.184 1600.37Z" fill="#0C89FF"/>
<path fill-rule="evenodd" clip-rule="evenodd" d="M522.75 1600.37L557.534 1635.15L522.75 1669.93L487.967 1635.15L522.75 1600.37Z" fill="#0C89FF"/>
<path fill-rule="evenodd" clip-rule="evenodd" d="M592.317 1600.37L627.1 1635.15L592.317 1669.93L557.533 1635.15L592.317 1600.37Z" fill="#0C89FF"/>
<path fill-rule="evenodd" clip-rule="evenodd" d="M661.883 1600.37L696.667 1635.15L661.883 1669.93L627.1 1635.15L661.883 1600.37Z" fill="#0C89FF"/>
<path fill-rule="evenodd" clip-rule="evenodd" d="M383.617 1669.94L418.4 1704.72L383.617 1739.5L348.834 1704.72L383.617 1669.94Z" fill="#0C89FF"/>
<path fill-rule="evenodd" clip-rule="evenodd" d="M453.184 1669.94L487.967 1704.72L453.184 1739.5L418.4 1704.72L453.184 1669.94Z" fill="#0C89FF"/>
<path fill-rule="evenodd" clip-rule="evenodd" d="M522.75 1669.94L557.534 1704.72L522.75 1739.5L487.967 1704.72L522.75 1669.94Z" fill="#0C89FF"/>
<path fill-rule="evenodd" clip-rule="evenodd" d="M592.317 1669.94L627.1 1704.72L592.317 1739.5L557.533 1704.72L592.317 1669.94Z" fill="#0C89FF"/>
<path fill-rule="evenodd" clip-rule="evenodd" d="M661.883 1669.94L696.667 1704.72L661.883 1739.5L627.1 1704.72L661.883 1669.94Z" fill="#0C89FF"/>
<path fill-rule="evenodd" clip-rule="evenodd" d="M1044.5 1391.67V1739.5H696.667V1391.67H1044.5ZM870.584 1461.23C870.584 1518.83 823.826 1565.58 766.234 1565.58C823.826 1565.58 870.584 1612.34 870.584 1669.93C870.584 1612.34 917.341 1565.58 974.934 1565.58C917.341 1565.58 870.584 1518.83 870.584 1461.23Z" fill="#0C89FF"/>
<path fill-rule="evenodd" clip-rule="evenodd" d="M1140.36 1427.97V1391.67H1176.66V1415.99H1152.7V1427.97H1140.36ZM1044.5 1523.83V1499.5H1056.84V1511.49H1068.46V1487.52H1104.77V1499.5H1116.39V1487.52H1128.73V1499.86H1116.75V1511.49H1140.36V1451.58H1152.34V1439.6H1164.32V1427.61H1188.64V1451.94H1176.66V1487.52H1200.62V1499.86H1188.64V1511.85H1176.66V1523.47H1212.61V1535.45H1224.59V1547.43H1236.57V1559.41H1248.19V1547.43H1260.17V1535.81H1236.21V1523.47H1248.19V1511.49H1260.17V1499.5H1284.14V1487.88H1248.55V1499.86H1236.57V1511.85H1224.23V1499.5H1236.21V1451.58H1248.19V1439.95H1224.59V1475.9H1212.25V1439.95H1200.26V1415.99H1188.28V1403.65H1200.62V1415.63H1212.25V1391.67H1272.52V1404.01H1260.53V1415.63H1272.52V1427.61H1284.5V1451.94H1260.53V1463.56H1272.52V1475.54H1284.14V1463.56H1296.48V1475.9H1284.5V1487.52H1332.42V1499.5H1356.03V1487.52H1392.33V1511.85H1379.99V1499.86H1356.39V1511.85H1332.07V1499.86H1320.44V1535.45H1332.42V1547.43H1356.03V1535.81H1344.05V1523.47H1356.39V1535.45H1368.01V1523.47H1380.35V1535.45H1392.33V1559.77H1368.01V1547.79H1356.39V1559.77H1332.42V1571.4H1356.39V1583.38H1368.37V1595.36H1379.99V1571.4H1392.33V1607.7H1368.01V1595.72H1356.39V1631.31H1368.37V1643.29H1392.33V1655.63H1368.01V1643.65H1356.39V1655.63H1344.41V1667.25H1356.39V1679.23H1379.99V1667.25H1392.33V1679.59H1380.35V1691.57H1332.42V1703.2H1380.35V1727.52H1368.37V1739.5H1356.03V1727.16H1368.01V1715.54H1344.41V1739.5H1332.07V1715.54H1308.46V1727.16H1320.44V1739.5H1308.1V1727.52H1296.12V1715.54H1284.5V1739.5H1260.17V1727.52H1248.19V1715.54H1236.57V1739.5H1200.26V1727.16H1212.25V1715.54H1188.28V1703.56H1176.66V1727.16H1188.64V1739.5H1152.34V1727.16H1164.32V1715.54H1140.36V1679.23H1164.68V1691.22H1188.64V1703.2H1212.25V1691.57H1200.26V1679.23H1224.59V1691.22H1236.21V1667.61H1212.25V1655.63H1200.62V1667.61H1188.64V1679.59H1176.3V1667.61H1164.32V1655.63H1140.36V1643.65H1080.45V1631.31H1092.43V1595.36H1104.41V1547.79H1092.79V1559.77H1056.84V1595.36H1068.82V1607.34H1080.81V1619.68H1068.46V1607.7H1056.84V1643.65H1044.5V1559.41H1056.48V1535.45H1080.45V1523.83H1044.5ZM1080.81 1499.86V1511.49H1092.79V1523.47H1104.41V1499.86H1080.81ZM1152.34 1523.83H1104.77V1535.45H1128.73V1547.43H1140.71V1571.4H1152.7V1595.72H1140.36V1571.76H1116.75V1583.38H1128.73V1595.72H1116.75V1607.34H1128.73V1619.68H1116.75V1631.31H1140.36V1619.32H1164.32V1595.36H1188.28V1583.38H1200.62V1607.7H1188.64V1619.32H1200.62V1631.31H1212.61V1655.27H1236.57V1667.25H1248.19V1655.27H1260.17V1643.65H1248.19V1595.72H1236.21V1583.74H1212.25V1571.4H1236.21V1559.77H1200.62V1571.76H1176.66V1583.74H1164.32V1571.4H1176.3V1559.77H1164.32V1547.43H1176.66V1559.41H1200.26V1547.43H1212.25V1535.81H1152.34V1523.83ZM1152.7 1499.86V1511.49H1176.3V1499.86H1152.7ZM1152.7 1451.94V1487.52H1164.32V1451.94H1152.7ZM1248.55 1559.77V1583.38H1260.17V1559.77H1248.55ZM1272.52 1535.81V1547.43H1284.14V1535.81H1272.52ZM1284.5 1499.86V1511.85H1272.52V1523.47H1284.5V1535.45H1296.12V1511.49H1308.1V1499.86H1284.5ZM1248.55 1475.54H1260.17V1463.92H1248.55V1475.54ZM1224.23 1439.6V1427.97H1212.61V1439.6H1224.23ZM1224.59 1404.01V1415.63H1248.19V1404.01H1224.59ZM1260.17 1415.99H1248.55V1427.61H1260.17V1415.99ZM1272.16 1427.97H1260.53V1439.6H1272.16V1427.97ZM1320.08 1535.81H1308.46V1547.43H1320.08V1535.81ZM1332.07 1547.79H1320.44V1559.41H1332.07V1547.79ZM1332.07 1571.76H1320.44V1583.74H1308.1V1571.76H1284.14V1559.77H1272.52V1583.74H1260.53V1595.36H1284.14V1583.38H1296.48V1595.36H1308.46V1607.34H1320.08V1595.36H1332.07V1571.76ZM1320.08 1571.4V1559.77H1308.46V1571.4H1320.08ZM1344.05 1631.31V1607.7H1332.42V1631.31H1344.05ZM1332.07 1679.23V1643.65H1296.48V1679.23H1332.07ZM1320.08 1703.2V1691.57H1308.46V1703.2H1320.08ZM1248.55 1715.18H1260.17V1679.59H1248.55V1691.57H1236.57V1703.2H1248.55V1715.18ZM1236.21 1715.18V1703.56H1212.61V1715.18H1236.21ZM1152.7 1703.2H1164.32V1691.57H1152.7V1703.2ZM1200.26 1655.27V1643.65H1188.64V1655.27H1200.26ZM1188.28 1667.25V1655.63H1176.66V1667.25H1188.28ZM1164.68 1655.27H1176.3V1643.65H1164.68V1655.27ZM1140.71 1643.29H1164.32V1631.67H1140.71V1643.29ZM1116.75 1547.79V1559.41H1128.37V1547.79H1116.75ZM1164.68 1619.68V1631.31H1176.3V1619.68H1164.68ZM1260.53 1643.29H1284.14V1631.31H1308.1V1607.7H1260.53V1619.32H1272.52V1631.67H1260.53V1643.29ZM1272.52 1679.59V1691.22H1284.14V1679.59H1272.52ZM1224.23 1607.7H1212.25V1595.36H1224.59V1607.34H1236.57V1643.65H1224.23V1607.7ZM1320.44 1655.27V1667.61H1308.1V1655.27H1320.44ZM1200.62 1463.56V1475.9H1188.28V1463.56H1200.62ZM1080.81 1571.4V1583.74H1068.46V1571.4H1080.81ZM1392.33 1619.32V1631.67H1379.99V1619.32H1392.33ZM1044.5 1391.67H1128.37V1475.54H1044.5V1391.67ZM1116.39 1463.56V1403.65H1056.48V1463.56H1116.39ZM1104.41 1415.63V1451.58H1068.46V1415.63H1104.41ZM1308.1 1391.67H1391.97V1475.54H1308.1V1391.67ZM1379.99 1463.56V1403.65H1320.08V1463.56H1379.99ZM1368.01 1415.63V1451.58H1332.06V1415.63H1368.01ZM1044.5 1655.27H1128.37V1739.14H1044.5V1655.27ZM1116.39 1727.16V1667.25H1056.48V1727.16H1116.39ZM1104.41 1679.23V1715.18H1068.46V1679.23H1104.41Z" fill="#FFC90F"/>
<path fill-rule="evenodd" clip-rule="evenodd" d="M1740.17 1391.67V1739.5H1392.33V1391.67H1740.17ZM1566.25 1428.03C1489.46 1428.03 1427.12 1489.67 1427.12 1565.58C1427.12 1641.5 1489.46 1703.14 1566.25 1703.14C1643.04 1703.14 1705.38 1641.5 1705.38 1565.58C1705.38 1489.66 1643.04 1428.03 1566.25 1428.03ZM1566.25 1462.42C1623.84 1462.42 1670.6 1508.65 1670.6 1565.59C1670.6 1622.52 1623.84 1668.75 1566.25 1668.75C1508.66 1668.75 1461.9 1622.52 1461.9 1565.59C1461.9 1508.65 1508.66 1462.42 1566.25 1462.42ZM1566.25 1496.02C1527.86 1496.02 1496.68 1527.19 1496.68 1565.59C1496.68 1603.98 1527.86 1635.15 1566.25 1635.15C1604.65 1635.15 1635.82 1603.98 1635.82 1565.59C1635.82 1527.19 1604.65 1496.02 1566.25 1496.02ZM1566.25 1530.8C1585.45 1530.8 1601.03 1546.39 1601.03 1565.59C1601.03 1584.78 1585.45 1600.37 1566.25 1600.37C1547.05 1600.37 1531.47 1584.78 1531.47 1565.59C1531.47 1546.39 1547.05 1530.8 1566.25 1530.8Z" fill="#FD3F03"/>
</g>
<defs>
<clipPath id="clip0_468_893">
<rect width="2088" height="1740" fill="white"/>
</clipPath>
</defs>
</svg>
