<?xml version="1.0" encoding="UTF-8" standalone="no"?><!DOCTYPE svg PUBLIC "-//W3C//DTD SVG 1.1//EN" "http://www.w3.org/Graphics/SVG/1.1/DTD/svg11.dtd"><svg width="100%" height="100%" viewBox="0 0 1920 1080" version="1.1" xmlns="http://www.w3.org/2000/svg" xmlns:xlink="http://www.w3.org/1999/xlink" xml:space="preserve" xmlns:serif="http://www.serif.com/" style="fill-rule:evenodd;clip-rule:evenodd;stroke-linejoin:round;stroke-miterlimit:2;"><path d="M240,0l0,360l-360,0l0,-360l360,0Zm-90,90l-180,0l0,180l180,0l0,-180Z" style="fill:#2f7339;"/><g><circle cx="-12" cy="756" r="36" style="fill:#ffc90f;"/><circle cx="-12" cy="828" r="36" style="fill:#ffc90f;"/><circle cx="-12" cy="900" r="36" style="fill:#ffc90f;"/><circle cx="-12" cy="972" r="36" style="fill:#ffc90f;"/><circle cx="-12" cy="1044" r="36" style="fill:#ffc90f;"/><circle cx="132" cy="756" r="36" style="fill:#ffc90f;"/><circle cx="132" cy="828" r="36" style="fill:#ffc90f;"/><circle cx="132" cy="900" r="36" style="fill:#ffc90f;"/><circle cx="132" cy="972" r="36" style="fill:#ffc90f;"/><circle cx="132" cy="1044" r="36" style="fill:#ffc90f;"/><circle cx="60" cy="756" r="36" style="fill:#ffc90f;"/><circle cx="60" cy="828" r="36" style="fill:#ffc90f;"/><circle cx="60" cy="900" r="36" style="fill:#ffc90f;"/><circle cx="60" cy="972" r="36" style="fill:#ffc90f;"/><circle cx="60" cy="1044" r="36" style="fill:#ffc90f;"/><circle cx="204" cy="756" r="36" style="fill:#ffc90f;"/><circle cx="204" cy="828" r="36" style="fill:#ffc90f;"/><circle cx="204" cy="900" r="36" style="fill:#ffc90f;"/><circle cx="204" cy="972" r="36" style="fill:#ffc90f;"/><circle cx="204" cy="1044" r="36" style="fill:#ffc90f;"/></g><g><circle cx="1716" cy="396" r="36" style="fill:#0c89ff;"/><circle cx="1716" cy="468" r="36" style="fill:#0c89ff;"/><circle cx="1716" cy="540" r="36" style="fill:#0c89ff;"/><circle cx="1716" cy="612" r="36" style="fill:#0c89ff;"/><circle cx="1716" cy="684" r="36" style="fill:#0c89ff;"/><circle cx="1788" cy="396" r="36" style="fill:#0c89ff;"/><circle cx="1788" cy="468" r="36" style="fill:#0c89ff;"/><circle cx="1788" cy="540" r="36" style="fill:#0c89ff;"/><circle cx="1788" cy="612" r="36" style="fill:#0c89ff;"/><circle cx="1788" cy="684" r="36" style="fill:#0c89ff;"/><circle cx="1932" cy="396" r="36" style="fill:#0c89ff;"/><circle cx="1932" cy="468" r="36" style="fill:#0c89ff;"/><circle cx="1932" cy="540" r="36" style="fill:#0c89ff;"/><circle cx="1932" cy="612" r="36" style="fill:#0c89ff;"/><circle cx="1932" cy="684" r="36" style="fill:#0c89ff;"/><circle cx="1860" cy="396" r="36" style="fill:#0c89ff;"/><circle cx="1860" cy="468" r="36" style="fill:#0c89ff;"/><circle cx="1860" cy="540" r="36" style="fill:#0c89ff;"/><circle cx="1860" cy="612" r="36" style="fill:#0c89ff;"/><circle cx="1860" cy="684" r="36" style="fill:#0c89ff;"/></g><path d="M60,720l90,-90l90,90l-180,0Zm-90,-90l90,90l-180,0l90,-90Zm0,-180l90,90l90,-90l90,90l0,90l-90,-90l-90,90l-90,-90l-90,90l0,-90l90,-90Zm0,-90l-90,90l0,-90l90,0Zm180,0l90,0l0,90l-90,-90Zm-180,0l180,0l-90,90l-90,-90Z" style="fill:#fd3f03;"/><g><path d="M600,720l0,360l-360,0l0,-360l360,0Zm-180,37.633c-79.476,0 -144,63.793 -144,142.367c0,78.575 64.524,142.367 144,142.367c79.476,0 144,-63.793 144,-142.367c0,-78.575 -64.524,-142.367 -144,-142.367Zm0,35.592c59.607,0 108,47.845 108,106.776c0,58.931 -48.393,106.776 -108,106.776c-59.607,0 -108,-47.845 -108,-106.776c0,-58.931 48.393,-106.776 108,-106.776Zm0,34.776c-39.738,0 -72,32.262 -72,72c0,39.738 32.262,72 72,72c39.738,0 72,-32.262 72,-72c0,-39.738 -32.262,-72 -72,-72Zm0,36c19.869,0 36,16.131 36,36c0,19.869 -16.131,36 -36,36c-19.869,0 -36,-16.131 -36,-36c0,-19.869 16.131,-36 36,-36Z" style="fill:#fd3f03;"/></g><g><path d="M276,360l36,36l-36,36l-36,-36l36,-36Z" style="fill:#0c89ff;"/><path d="M348,360l36,36l-36,36l-36,-36l36,-36Z" style="fill:#0c89ff;"/><path d="M420,360l36,36l-36,36l-36,-36l36,-36Z" style="fill:#0c89ff;"/><path d="M492,360l36,36l-36,36l-36,-36l36,-36Z" style="fill:#0c89ff;"/><path d="M564,360l36,36l-36,36l-36,-36l36,-36Z" style="fill:#0c89ff;"/><path d="M276,432l36,36l-36,36l-36,-36l36,-36Z" style="fill:#0c89ff;"/><path d="M348,432l36,36l-36,36l-36,-36l36,-36Z" style="fill:#0c89ff;"/><path d="M420,432l36,36l-36,36l-36,-36l36,-36Z" style="fill:#0c89ff;"/><path d="M492,432l36,36l-36,36l-36,-36l36,-36Z" style="fill:#0c89ff;"/><path d="M564,432l36,36l-36,36l-36,-36l36,-36Z" style="fill:#0c89ff;"/><path d="M276,504l36,36l-36,36l-36,-36l36,-36Z" style="fill:#0c89ff;"/><path d="M348,504l36,36l-36,36l-36,-36l36,-36Z" style="fill:#0c89ff;"/><path d="M420,504l36,36l-36,36l-36,-36l36,-36Z" style="fill:#0c89ff;"/><path d="M492,504l36,36l-36,36l-36,-36l36,-36Z" style="fill:#0c89ff;"/><path d="M564,504l36,36l-36,36l-36,-36l36,-36Z" style="fill:#0c89ff;"/><path d="M276,576l36,36l-36,36l-36,-36l36,-36Z" style="fill:#0c89ff;"/><path d="M348,576l36,36l-36,36l-36,-36l36,-36Z" style="fill:#0c89ff;"/><path d="M420,576l36,36l-36,36l-36,-36l36,-36Z" style="fill:#0c89ff;"/><path d="M492,576l36,36l-36,36l-36,-36l36,-36Z" style="fill:#0c89ff;"/><path d="M564,576l36,36l-36,36l-36,-36l36,-36Z" style="fill:#0c89ff;"/><path d="M276,648l36,36l-36,36l-36,-36l36,-36Z" style="fill:#0c89ff;"/><path d="M348,648l36,36l-36,36l-36,-36l36,-36Z" style="fill:#0c89ff;"/><path d="M420,648l36,36l-36,36l-36,-36l36,-36Z" style="fill:#0c89ff;"/><path d="M492,648l36,36l-36,36l-36,-36l36,-36Z" style="fill:#0c89ff;"/><path d="M564,648l36,36l-36,36l-36,-36l36,-36Z" style="fill:#0c89ff;"/></g><g><path d="M420,0l0,180l-180,0c0,-99.345 80.655,-180 180,-180Z" style="fill:#fd3f03;"/><path d="M420,0l180,0l0,180c-99.345,0 -180,-80.655 -180,-180Z" style="fill:#fd3f03;"/><path d="M420,360l0,-180l180,0c0,99.345 -80.655,180 -180,180Z" style="fill:#fd3f03;"/><path d="M420,360l-180,0l0,-180c99.345,0 180,80.655 180,180Z" style="fill:#fd3f03;"/></g><path d="M960,360l0,360l-360,0l0,-360l360,0Zm-180,72c0,59.607 -48.393,108 -108,108c59.607,0 108,48.393 108,108c0,-59.607 48.393,-108 108,-108c-59.607,0 -108,-48.393 -108,-108Z" style="fill:#0c89ff;"/><path d="M2040,0l0,360l-360,0l0,-360l360,0Zm-180,72c0,59.607 -48.393,108 -108,108c59.607,0 108,48.393 108,108c0,-59.607 48.393,-108 108,-108c-59.607,0 -108,-48.393 -108,-108Z" style="fill:#2f7339;"/><path d="M1059.208,397.575l0,-37.575l37.575,0l0,25.174l-24.802,0l0,12.401l-12.773,0Zm-99.208,99.208l0,-25.174l12.773,0l0,12.401l12.029,0l0,-24.802l37.575,0l0,12.401l12.029,0l0,-12.401l12.773,0l0,12.773l-12.401,0l0,12.029l24.43,0l0,-62.005l12.401,0l0,-12.401l12.401,0l0,-12.401l25.174,0l0,25.174l-12.401,0l0,36.831l24.802,0l0,12.773l-12.401,0l0,12.401l-12.401,0l0,12.029l37.203,0l0,12.401l12.401,0l0,12.401l12.401,0l0,12.401l12.029,0l0,-12.401l12.401,0l0,-12.029l-24.802,0l0,-12.773l12.401,0l0,-12.401l12.401,0l0,-12.401l24.802,0l0,-12.029l-36.831,0l0,12.401l-12.401,0l0,12.401l-12.773,0l0,-12.773l12.401,0l0,-49.604l12.401,0l0,-12.029l-24.43,0l0,37.203l-12.773,0l0,-37.203l-12.401,0l0,-24.802l-12.401,0l0,-12.773l12.773,0l0,12.401l12.029,0l0,-24.802l62.377,0l0,12.773l-12.401,0l0,12.029l12.401,0l0,12.401l12.401,0l0,25.174l-24.802,0l0,12.029l12.401,0l0,12.401l12.029,0l0,-12.401l12.773,0l0,12.773l-12.401,0l0,12.029l49.604,0l0,12.401l24.43,0l0,-12.401l37.575,0l0,25.174l-12.773,0l0,-12.401l-24.43,0l0,12.401l-25.174,0l0,-12.401l-12.029,0l0,36.831l12.401,0l0,12.401l24.43,0l0,-12.029l-12.401,0l0,-12.773l12.773,0l0,12.401l12.029,0l0,-12.401l12.773,0l0,12.401l12.401,0l0,25.174l-25.174,0l0,-12.401l-12.029,0l0,12.401l-24.802,0l0,12.029l24.802,0l0,12.401l12.401,0l0,12.401l12.029,0l0,-24.802l12.773,0l0,37.575l-25.174,0l0,-12.401l-12.029,0l0,36.831l12.401,0l0,12.401l24.802,0l0,12.773l-25.174,0l0,-12.401l-12.029,0l0,12.401l-12.401,0l0,12.029l12.401,0l0,12.401l24.43,0l0,-12.401l12.773,0l0,12.773l-12.401,0l0,12.401l-49.604,0l0,12.029l49.604,0l0,25.174l-12.401,0l0,12.401l-12.773,0l0,-12.773l12.401,0l0,-12.029l-24.43,0l0,24.802l-12.773,0l0,-24.802l-24.43,0l0,12.029l12.401,0l0,12.773l-12.773,0l0,-12.401l-12.401,0l0,-12.401l-12.029,0l0,24.802l-25.174,0l0,-12.401l-12.401,0l0,-12.401l-12.029,0l0,24.802l-37.575,0l0,-12.773l12.401,0l0,-12.029l-24.802,0l0,-12.401l-12.029,0l0,24.43l12.401,0l0,12.773l-37.575,0l0,-12.773l12.401,0l0,-12.029l-24.802,0l0,-37.575l25.174,0l0,12.401l24.802,0l0,12.401l24.43,0l0,-12.029l-12.401,0l0,-12.773l25.174,0l0,12.401l12.029,0l0,-24.43l-24.802,0l0,-12.401l-12.029,0l0,12.401l-12.401,0l0,12.401l-12.773,0l0,-12.401l-12.401,0l0,-12.401l-24.802,0l0,-12.401l-62.005,0l0,-12.773l12.401,0l0,-37.203l12.401,0l0,-49.232l-12.029,0l0,12.401l-37.203,0l0,36.831l12.401,0l0,12.401l12.401,0l0,12.773l-12.773,0l0,-12.401l-12.029,0l0,37.203l-12.773,0l0,-87.179l12.401,0l0,-24.802l24.802,0l0,-12.029l-37.203,0Zm37.575,-24.802l0,12.029l12.401,0l0,12.401l12.029,0l0,-24.43l-24.43,0Zm74.034,24.802l-49.232,0l0,12.029l24.802,0l0,12.401l12.401,0l0,24.802l12.401,0l0,25.174l-12.773,0l0,-24.802l-24.43,0l0,12.029l12.401,0l0,12.773l-12.401,0l0,12.029l12.401,0l0,12.773l-12.401,0l0,12.029l24.43,0l0,-12.401l24.802,0l0,-24.802l24.802,0l0,-12.401l12.773,0l0,25.174l-12.401,0l0,12.029l12.401,0l0,12.401l12.401,0l0,24.802l24.802,0l0,12.401l12.029,0l0,-12.401l12.401,0l0,-12.029l-12.401,0l0,-49.604l-12.401,0l0,-12.401l-24.802,0l0,-12.773l24.802,0l0,-12.029l-36.831,0l0,12.401l-24.802,0l0,12.401l-12.773,0l0,-12.773l12.401,0l0,-12.029l-12.401,0l0,-12.773l12.773,0l0,12.401l24.43,0l0,-12.401l12.401,0l0,-12.029l-62.005,0l0,-12.401Zm0.372,-24.802l0,12.029l24.43,0l0,-12.029l-24.43,0Zm0,-49.604l0,36.831l12.029,0l0,-36.831l-12.029,0Zm99.208,111.609l0,24.43l12.029,0l0,-24.43l-12.029,0Zm24.802,-24.802l0,12.029l12.029,0l0,-12.029l-12.029,0Zm12.401,-37.203l0,12.401l-12.401,0l0,12.029l12.401,0l0,12.401l12.029,0l0,-24.802l12.401,0l0,-12.029l-24.43,0Zm-37.203,-25.174l12.029,0l0,-12.029l-12.029,0l0,12.029Zm-25.174,-37.203l0,-12.029l-12.029,0l0,12.029l12.029,0Zm0.372,-36.831l0,12.029l24.43,0l0,-12.029l-24.43,0Zm36.831,12.401l-12.029,0l0,12.029l12.029,0l0,-12.029Zm12.401,12.401l-12.029,0l0,12.029l12.029,0l0,-12.029Zm49.604,111.609l-12.029,0l0,12.029l12.029,0l0,-12.029Zm12.401,12.401l-12.029,0l0,12.029l12.029,0l0,-12.029Zm0,24.802l-12.029,0l0,12.401l-12.773,0l0,-12.401l-24.802,0l0,-12.401l-12.029,0l0,24.802l-12.401,0l0,12.029l24.43,0l0,-12.401l12.773,0l0,12.401l12.401,0l0,12.401l12.029,0l0,-12.401l12.401,0l0,-24.43Zm-12.401,-0.372l0,-12.029l-12.029,0l0,12.029l12.029,0Zm24.802,62.005l0,-24.43l-12.029,0l0,24.43l12.029,0Zm-12.401,49.604l0,-36.831l-36.831,0l0,36.831l36.831,0Zm-12.401,24.802l0,-12.029l-12.029,0l0,12.029l12.029,0Zm-74.034,12.401l12.029,0l0,-36.831l-12.029,0l0,12.401l-12.401,0l0,12.029l12.401,0l0,12.401Zm-12.773,0l0,-12.029l-24.43,0l0,12.029l24.43,0Zm-86.435,-12.401l12.029,0l0,-12.029l-12.029,0l0,12.029Zm49.232,-49.604l0,-12.029l-12.029,0l0,12.029l12.029,0Zm-12.401,12.401l0,-12.029l-12.029,0l0,12.029l12.029,0Zm-24.43,-12.401l12.029,0l0,-12.029l-12.029,0l0,12.029Zm-24.802,-12.401l24.43,0l0,-12.029l-24.43,0l0,12.029Zm-24.802,-98.836l0,12.029l12.029,0l0,-12.029l-12.029,0Zm49.604,74.406l0,12.029l12.029,0l0,-12.029l-12.029,0Zm99.208,24.43l24.43,0l0,-12.401l24.802,0l0,-24.43l-49.232,0l0,12.029l12.401,0l0,12.773l-12.401,0l0,12.029Zm12.401,37.575l0,12.029l12.029,0l0,-12.029l-12.029,0Zm-49.976,-74.406l-12.401,0l0,-12.773l12.773,0l0,12.401l12.401,0l0,37.575l-12.773,0l0,-37.203Zm99.58,49.232l0,12.773l-12.773,0l0,-12.773l12.773,0Zm-124.01,-198.415l0,12.773l-12.773,0l0,-12.773l12.773,0Zm-124.01,111.609l0,12.773l-12.773,0l0,-12.773l12.773,0Zm322.425,49.604l0,12.773l-12.773,0l0,-12.773l12.773,0Zm-360,-235.618l86.807,0l0,86.807l-86.807,0l0,-86.807Zm74.406,74.406l0,-62.005l-62.005,0l0,62.005l62.005,0Zm-12.401,-49.604l0,37.203l-37.203,0l0,-37.203l37.203,0Zm210.816,-24.802l86.807,0l0,86.807l-86.807,0l0,-86.807Zm74.406,74.406l0,-62.005l-62.005,0l0,62.005l62.005,0Zm-12.401,-49.604l0,37.203l-37.203,0l0,-37.203l37.203,0Zm-334.826,248.019l86.807,0l0,86.807l-86.807,0l0,-86.807Zm74.406,74.406l0,-62.005l-62.005,0l0,62.005l62.005,0Zm-12.401,-49.604l0,37.203l-37.203,0l0,-37.203l37.203,0Z" style="fill:#ffc90f;"/><g><path d="M960,180l180,180l-180,0l0,-180Z" style="fill:#2f7339;"/><path d="M960,180l0,-180l180,-0l-180,180Z" style="fill:#2f7339;"/><path d="M1320,180l0,180l-180,-180l180,-0Z" style="fill:#2f7339;"/><path d="M1140,180l180,-180l0,180l-180,-0Z" style="fill:#2f7339;"/></g><g><path d="M600,0l180,0l0,180l-180,-180" style="fill:#ffc90f;"/><path d="M960,0l0,180l-180,0l180,-180" style="fill:#ffc90f;"/><path d="M960,360l-180,0l0,-180l180,180" style="fill:#ffc90f;"/><path d="M600,360l0,-180l180,-0l-180,180" style="fill:#ffc90f;"/></g><g><path d="M1680,720l180,0l0,180l-180,-180" style="fill:#ffc90f;"/><path d="M2040,720l0,180l-180,0l180,-180" style="fill:#ffc90f;"/><path d="M2040,1080l-180,0l0,-180l180,180" style="fill:#ffc90f;"/><path d="M1680,1080l0,-180l180,0l-180,180" style="fill:#ffc90f;"/></g><g><path d="M1320,720l0,360l-360,0l0,-360l360,0Zm-180,48.96c-72.323,0 -131.04,58.717 -131.04,131.04c0,72.323 58.717,131.04 131.04,131.04c72.323,0 131.04,-58.717 131.04,-131.04c0,-72.323 -58.717,-131.04 -131.04,-131.04Z" style="fill:#ffc90f;"/></g><g><g><path d="M780,1080l-90,-90l90,-90l0,180Z" style="fill:#2f7339;"/><path d="M600,900l90,90l-90,90l-0,-180Z" style="fill:#2f7339;"/><path d="M780,1080l90,-90l90,90l-180,0Z" style="fill:#2f7339;"/><path d="M960,900l-90,90l-90,-90l180,0Z" style="fill:#2f7339;"/><path d="M780,720l90,90l-90,90l0,-180Z" style="fill:#2f7339;"/><path d="M960,900l-90,-90l90,-90l0,180Z" style="fill:#2f7339;"/><path d="M780,720l-90,90l-90,-90l180,0Z" style="fill:#2f7339;"/><path d="M600,900l90,-90l90,90l-180,-0Z" style="fill:#2f7339;"/></g></g><g><path d="M1680,360l0,360l-360,0l0,-360l360,0Zm-180,37.633c-79.476,0 -144,63.793 -144,142.367c0,78.575 64.524,142.367 144,142.367c79.476,0 144,-63.793 144,-142.367c0,-78.575 -64.524,-142.367 -144,-142.367Zm0,35.592c59.607,0 108,47.845 108,106.776c0,58.931 -48.393,106.776 -108,106.776c-59.607,0 -108,-47.845 -108,-106.776c0,-58.931 48.393,-106.776 108,-106.776Zm0,34.776c-39.738,0 -72,32.262 -72,72c0,39.738 32.262,72 72,72c39.738,0 72,-32.262 72,-72c0,-39.738 -32.262,-72 -72,-72Zm0,36c19.869,0 36,16.131 36,36c0,19.869 -16.131,36 -36,36c-19.869,0 -36,-16.131 -36,-36c0,-19.869 16.131,-36 36,-36Z" style="fill:#fd3f03;"/></g><g><path d="M1590,720c0,49.672 40.328,90 90,90c-49.672,0 -90,40.328 -90,90c0,-49.672 -40.328,-90 -90,-90c49.672,0 90,-40.328 90,-90Z" style="fill:#0c89ff;"/><path d="M1410,720c0,49.672 40.328,90 90,90c-49.672,0 -90,40.328 -90,90c0,-49.672 -40.328,-90 -90,-90c49.672,0 90,-40.328 90,-90Z" style="fill:#0c89ff;"/><path d="M1410,900c0,49.672 40.328,90 90,90c-49.672,0 -90,40.328 -90,90c0,-49.672 -40.328,-90 -90,-90c49.672,0 90,-40.328 90,-90Z" style="fill:#0c89ff;"/><path d="M1590,900c0,49.672 40.328,90 90,90c-49.672,0 -90,40.328 -90,90c0,-49.672 -40.328,-90 -90,-90c49.672,0 90,-40.328 90,-90Z" style="fill:#0c89ff;"/></g><path d="M1680,0l0,360l-360,0l0,-360l360,0Zm-180,119.804c-22.737,-51.791 -68.21,-51.791 -90.947,-30.191c-22.737,21.6 -22.737,64.8 0,108c15.916,32.4 56.842,64.8 90.947,86.4c34.105,-21.6 75.031,-54 90.947,-86.4c22.738,-43.2 22.738,-86.4 0,-108c-22.737,-21.6 -68.211,-21.6 -90.947,30.191Z" style="fill:#0c89ff;"/></svg>